<svg xmlns="http://www.w3.org/2000/svg" xmlns:xlink="http://www.w3.org/1999/xlink" fill="none" version="1.1" width="41.494140625" height="26" viewBox="0 0 41.494140625 26"><path d="M15.542338,20.496696467926025C14.617949,20.985949467926027,13.488139,21.230024467926025,12.152909,21.230024467926025C11.151211,21.230024467926025,10.233447,21.036755467926024,9.3985147,20.645794467926024C8.5624781,20.257042467926027,7.8512392,19.726927467926025,7.2614851,19.062073467926027C6.671731,18.393906467926026,6.2100883,17.614191467926027,5.8754525,16.722934467926024C5.5408168,15.833885467926025,5.3740511,14.888514467926026,5.3740511,13.885711467926026C5.3740511,13.885711467926026,5.3740511,13.817236467926026,5.3740511,13.817236467926026C5.3740511,12.817746467926025,5.5408168,11.876792467926025,5.8754525,10.996578667926025C6.2100883,10.118573667926025,6.6772532,9.344382767926025,7.2780514,8.676215667926026C7.8788495,8.008048567926025,8.596715,7.485663367926025,9.4316473,7.105746767926026C10.267684,6.728039267926025,11.173299,6.540290367926025,12.152909,6.540290367926025C13.332417,6.540290367926025,14.395964,6.774425067926026,15.341337,7.241589567926026C16.286711,7.708754067926026,17.216621,8.352623467926026,18.128862,9.176512267926025C18.128862,9.176512267926025,21.401224,5.404958267926025,21.401224,5.404958267926025C20.867794,4.869320167926025,20.286877,4.380067867926025,19.665094,3.934991167926025C19.041103,3.4899145679260255,18.361893,3.112206667926025,17.628565,2.7996591379260254C16.893028,2.4904248079260256,16.075768,2.2452460279260253,15.173467,2.066331867926025C14.272269,1.8896265249260253,13.274988,1.8001694679260254,12.186042,1.8001694679260254C10.383647,1.8001694679260254,8.734766,2.1149258879260255,7.2449188,2.7510651379260254C5.7528629,3.3838910679260255,4.4728537,4.254164967926025,3.4037864,5.354155567926025C2.3358235,6.457459467926025,1.500891,7.737469167926025,0.90009278,9.193079467926026C0.30039907,10.653107167926025,0,12.218054467926025,0,13.885711467926026C0,13.885711467926026,0,13.954184467926025,0,13.954184467926025C0,15.622945467926025,0.30039904,17.190099467926025,0.9011972,18.660067467926027C1.5019953,20.130034467926027,2.3369281,21.404522467926025,3.404891,22.483528467926025C4.4739585,23.564743467926025,5.7429237,24.415138467926024,7.2117867,25.038025467926026C8.6806498,25.659807467926026,10.270998,25.972355467926025,11.986144,25.972355467926025C13.121476,25.972355467926025,14.145262,25.877377467926024,15.057503,25.689627467926027C15.970848,25.499668467926025,16.811304,25.222460467926027,17.578867,24.855797467926024C18.34643,24.485821467926026,19.053253,24.048475467926025,19.698227,23.534925467926026C20.343201,23.023584467926025,20.967194,22.444874467926024,21.569096,21.798796467926024C21.569096,21.798796467926024,18.296734,18.494406467926026,18.296734,18.494406467926026C17.383389,19.339277467926024,16.465624,20.007444467926025,15.542338,20.496696467926025Z" fill="#000000" fill-opacity="1"/><path d="M38.74079853125,10.057900703723146C37.88377853125,9.220759003723145,36.86440853125,8.565845403723145,35.68490053125,8.087636473723144C34.50428753125,7.609427633723144,33.22428153125,7.3697710037231445,31.84597973125,7.3697710037231445C30.46767803125,7.3697710037231445,29.152327531250002,7.613845243723144,27.97281933125,8.103098153723145C26.79220673125,8.592351103723145,25.76952483125,9.260517803723145,24.90145993125,10.105390303723144C24.03339503125,10.953575803723144,23.35418363125,11.936499103723143,22.86493087125,13.061891103723145C22.37457359125,14.183970003723145,22.12939453125,15.393298103723145,22.12939453125,16.684351903723144C22.12939453125,16.684351903723144,22.12939453125,16.749511703723144,22.12939453125,16.749511703723144C22.12939453125,18.042774003723146,22.37346920125,19.248788003723142,22.86493087125,20.374180003723147C23.35418363125,21.496259003723146,24.02787373125,22.476975003723144,24.88489463125,23.311908003723147C25.74081113125,24.145736003723144,26.76017903125,24.803964003723145,27.93858293125,25.282172003723144C29.11919543125,25.760381003723143,30.39920423125,26.000037003723143,31.779714631250002,26.000037003723143C33.16022453125,26.000037003723143,34.47226153125,25.755960003723146,35.65176953125,25.266707003723145C36.83238253125,24.777455003723144,37.85506453125,24.109286003723145,38.723129531249995,23.264415003723144C39.59119453125,22.416229003723146,40.27040653125,21.433308003723145,40.76076353125,20.307916003723143C41.25001553125,19.185837003723144,41.49408953125,17.976510003723142,41.49408953125,16.685456303723143C41.49408953125,16.685456303723143,41.49408953125,16.616983403723147,41.49408953125,16.616983403723147C41.49408953125,15.325930103723145,41.25001553125,14.119915003723143,40.76076353125,12.994523003723145C40.27040653125,11.869131103723145,39.59671553125,10.891728903723145,38.74079853125,10.056796103723144C38.74079853125,10.056796103723144,38.74079853125,10.057900703723146,38.74079853125,10.057900703723146ZM36.48670153125,16.750616103723146C36.48670153125,17.418783003723142,36.380679531249996,18.049400003723143,36.16863253125,18.639154003723142C35.95658553125,19.228909003723146,35.65066553125,19.744668003723145,35.25197453125,20.190849003723145C34.85107453125,20.635926003723142,34.36623953125,20.987126003723144,33.79967753125,21.242245003723145C33.23201153125,21.497363003723144,32.57930653125,21.625474003723145,31.84597973125,21.625474003723145C31.11265273125,21.625474003723145,30.49307923125,21.491842003723143,29.92651753125,21.225679003723144C29.35885143125,20.959517003723143,28.86297373125,20.598374003723144,28.43998523125,20.141150003723144C28.01699683125,19.683925003723147,27.69450903125,19.160435003723144,27.47141833125,18.570681003723145C27.24832773125,17.980927003723146,27.13899043125,17.353623403723144,27.13899043125,16.685456303723143C27.13899043125,16.685456303723143,27.13899043125,16.616983403723147,27.13899043125,16.616983403723147C27.13899043125,15.951025003723144,27.24391033125,15.320406903723145,27.45595693125,14.731757203723145C27.66800353125,14.142003103723145,27.97392513125,13.626243603723145,28.37482543125,13.180062803723144C28.77572583125,12.733881903723145,29.25945563125,12.383784803723145,29.82712173125,12.128666403723145C30.39478783125,11.870235003723145,31.04528423125,11.743228403723144,31.78081993125,11.743228403723144C32.46997053125,11.743228403723144,33.10390153125,11.876861603723144,33.682611531250004,12.145232703723146C34.26132153125,12.411395103723144,34.76272153125,12.772537203723145,35.18570853125,13.229762103723145C35.608696531250004,13.685882603723144,35.93118353125,14.210475903723145,36.15427353125,14.800230003723144C36.37736453125,15.389984103723144,36.48891353125,16.017289203723145,36.48891353125,16.685456303723143C36.48891353125,16.685456303723143,36.48891353125,16.750616103723146,36.48891353125,16.750616103723146C36.48891353125,16.750616103723146,36.48670153125,16.750616103723146,36.48670153125,16.750616103723146Z" fill="#000000" fill-opacity="1"/><path d="M29.97209829125,4.2343016C30.19960642125,4.4562879,30.47018723125,4.6307845,30.78383913125,4.7577915C31.09749103125,4.8847985,31.43764783125,4.948854,31.80431123125,4.948854C32.17097473125,4.948854,32.51996783125,4.8836937,32.83251523125,4.754478C33.14616723125,4.6241579,33.41785333125,4.4474525,33.64867453125,4.2221532C33.87949563125,3.9968538,34.05951403125,3.7351093,34.18983413125,3.436919C34.32015423125,3.1387286,34.38420773125,2.8173459,34.38420773125,2.4749792C34.38420773125,2.4749792,34.38420773125,2.4573085,34.38420773125,2.4573085C34.38420773125,2.1149418,34.31904983125,1.7935592,34.18983413125,1.495369C34.05951403125,1.1960742,33.88059803125,0.93653822,33.65309003125,0.71455216C33.42558193125,0.49256608,33.15500113125,0.31806961,32.84134913125,0.19106264C32.52769713125,0.064055689,32.18754033125,0,31.82087683125,0C31.45421333125,0,31.10521933125,0.065160103,30.79156743125,0.19437587C30.47791553125,0.32469606,30.20623273125,0.50140136,29.97541141125,0.72670066C29.74459010125,0.95199996,29.56457215125,1.2126403,29.43425196125,1.511935C29.30393178725,1.8101252,29.23876953125,2.1315079,29.23876953125,2.4738746C29.23876953125,2.4738746,29.23876953125,2.4915452,29.23876953125,2.4915452C29.23876953125,2.8350163,29.30393178725,3.1552947,29.43425196125,3.4545894C29.56457215125,3.7527797,29.74348467125,4.0134201,29.97099280125,4.2343016C29.97099280125,4.2343016,29.97209829125,4.2343016,29.97209829125,4.2343016Z" fill="#FF9D4D" fill-opacity="1"/><path d="M23.71428412125,6.066605600854492C23.94179225125,6.288591900854493,24.21237303125,6.463088000854492,24.52602493125,6.590095000854492C24.83967683125,6.717102000854492,25.17983363125,6.781158000854492,25.54649713125,6.781158000854492C25.91316053125,6.781158000854492,26.26215363125,6.715997700854492,26.57470103125,6.585677600854492C26.88835313125,6.455357600854493,27.16003753125,6.278652200854492,27.39085863125,6.053352800854492C27.62167983125,5.828053500854493,27.80169963125,5.567413100854492,27.93201973125,5.268118400854492C28.06233983125,4.969928000854493,28.127499131249998,4.6485455008544925,28.127499131249998,4.306178800854492C28.127499131249998,4.306178800854492,28.127499131249998,4.288508400854492,28.127499131249998,4.288508400854492C28.127499131249998,3.946141700854492,28.06233983125,3.6258633008544923,27.93201973125,3.3265686008544924C27.80169963125,3.0272739008544924,27.62278553125,2.7677377508544923,27.39527753125,2.5468561008544923C27.16776943125,2.324870020854492,26.89718863125,2.1503735508544923,26.58353663125,2.023366600854492C26.26988463125,1.8963596448544922,25.92972783125,1.8323040008544922,25.56306433125,1.8323040008544922C25.19640083125,1.8323040008544922,24.84740683125,1.8974641558544922,24.53375493125,2.0277843308544923C24.22010303125,2.1581045108544923,23.94841850125,2.334809840854492,23.71759719125,2.5601091408544923C23.48677587125,2.7854084408544924,23.30675796125,3.047153200854492,23.17643778125,3.3453435008544923C23.04611760425,3.6435337008544924,22.98095703125,3.964916500854492,22.98095703125,4.307283200854492C22.98095703125,4.307283200854492,22.98095703125,4.324953600854492,22.98095703125,4.324953600854492C22.98095703125,4.668424600854492,23.04611760425,4.988703000854493,23.17643778125,5.287997700854492C23.30675796125,5.586188100854493,23.48567217125,5.846828000854492,23.71318030125,6.068814300854492C23.71318030125,6.068814300854492,23.71428412125,6.066605600854492,23.71428412125,6.066605600854492Z" fill="#FF9D4D" fill-opacity="1"/><path d="M36.2292937025,6.066605600854492C36.4568018325,6.288591900854493,36.7273825125,6.463088000854492,37.0410346125,6.590095000854492C37.354686612500004,6.717102000854492,37.6948433125,6.781158000854492,38.0615070125,6.781158000854492C38.4281707125,6.781158000854492,38.7771633125,6.715997700854492,39.0897109125,6.585677600854492C39.4033630125,6.455357600854493,39.6750460125,6.278652200854492,39.9058671125,6.053352800854492C40.1366882125,5.828053500854493,40.316710012499996,5.567413100854492,40.4470301125,5.268118400854492C40.5773501125,4.969928000854493,40.6414037125,4.6485455008544925,40.6414037125,4.306178800854492C40.6414037125,4.306178800854492,40.6414037125,4.288508400854492,40.6414037125,4.288508400854492C40.6414037125,3.946141700854492,40.5762458125,3.6258633008544923,40.4470301125,3.3265686008544924C40.316710012499996,3.0272739008544924,40.1377940125,2.7677377508544923,39.9102859125,2.5468561008544923C39.6827779125,2.324870020854492,39.4121969125,2.1503735508544923,39.0985448125,2.023366600854492C38.7848928125,1.8963596448544922,38.4447369125,1.8323040008544922,38.0791778125,1.8323040008544922C37.7136187125,1.8323040008544922,37.3635204125,1.8974641558544922,37.0498683125,2.0277843308544923C36.7362163125,2.1581045108544923,36.4645302925,2.334809840854492,36.2337089225,2.5601091408544923C36.0028875425,2.7854084408544924,35.8228696025,3.047153200854492,35.6925494025,3.3453435008544923C35.5622292085,3.6435337008544924,35.4970703125,3.964916500854492,35.4970703125,4.307283200854492C35.4970703125,4.307283200854492,35.4970703125,4.324953600854492,35.4970703125,4.324953600854492C35.4970703125,4.668424600854492,35.5622292085,4.988703000854493,35.6925494025,5.287997700854492C35.8228696025,5.586188100854493,36.0017855725,5.846828000854492,36.2292937025,6.068814300854492C36.2292937025,6.068814300854492,36.2292937025,6.066605600854492,36.2292937025,6.066605600854492Z" fill="#FF9D4D" fill-opacity="1"/></svg>