<svg xmlns="http://www.w3.org/2000/svg" xmlns:xlink="http://www.w3.org/1999/xlink" fill="none" version="1.1" width="175.35000610351562" height="235.4199981689453" viewBox="0 0 175.35000610351562 235.4199981689453"><defs><clipPath id="master_svg0_145_28391"><rect x="0" y="0" width="175.35000610351562" height="235.4199981689453" rx="0"/></clipPath></defs><g clip-path="url(#master_svg0_145_28391)"><path d="M83.10836,229.9998485546875C129.00784,229.9998485546875,166.21672,193.9784385546875,166.21672,149.5438075546875C166.21672,105.1091615546875,129.00784,69.0877685546875,83.10836,69.0877685546875C37.208885,69.0877685546875,0,105.1091615546875,0,149.5438075546875C0,193.9784385546875,37.208885,229.9998485546875,83.10836,229.9998485546875ZM83.108734,195.39502855468749C109.26651,195.39502855468749,130.47157,174.8667085546875,130.47157,149.5437395546875C130.47157,124.2207715546875,109.26651,103.6924515546875,83.108734,103.6924515546875C56.950966,103.6924515546875,35.745914,124.2207715546875,35.745914,149.5437395546875C35.745914,174.8667085546875,56.950966,195.39502855468749,83.108734,195.39502855468749Z" fill-rule="evenodd" fill="#000000" fill-opacity="1"/><path d="M80.31835555625,46.48915884375C82.31537815625,48.43563484375,84.69048165625,49.96570184375,87.44365765625,51.07936084375C90.19683265625,52.19301584375,93.18267265624999,52.75468784375,96.40117865625,52.75468784375C99.61968465625,52.75468784375,102.68308465625,52.18332684375,105.42656165625,51.05030784375C108.17973665625,49.90760084375,110.56454065625,48.35816584375,112.59064065625,46.38263684375C114.61674165625,44.40710784375,116.19691465625,42.11201084375,117.34083965625,39.49733884375C118.48477165624999,36.882665843750004,119.04704265625,34.064632843750005,119.04704265625,31.06260484375L119.04704265625,30.90766184375C119.04704265625,27.90563184375,118.47508265625001,25.08759984375,117.34083965625,22.47292784375C116.19691465625,19.84857384375,114.62644165625,17.57284164375,112.62942165625,15.626364743749999C110.63239665625,13.679887743750001,108.25728965625001,12.14982174375,105.50411765625,11.03616584375C102.75094265625,9.92250990375,99.76509865625,9.36083984375,96.54659465625,9.36083984375C93.32809265624999,9.36083984375,90.26469065625,9.93219375375,87.51151765624999,11.06521774375C84.75834165625,12.207925543750001,82.37353995625,13.757359543749999,80.34743685625,15.73288914375C78.32133435625,17.70841784375,76.74116035625,19.99383284375,75.59723355625,22.618188843749998C74.45330721625,25.23285984375,73.88134765625,28.05089384375,73.88134765625,31.05292284375L73.88134765625,31.20786484375C73.88134765625,34.21957984375,74.45330721625,37.02792784375,75.59723355625,39.65228284375C76.74116035625,42.26695984375,78.31163835625,44.55237584375,80.30865955625,46.48916284375L80.31835555625,46.48915884375Z" fill="#FF9D4D" fill-opacity="1" style="mix-blend-mode:passthrough" transform="matrix(0.9901291728019714,-0.14083673059940338,0.14062289893627167,0.9899662137031555,-0.5870784194339649,10.499132122735318)"/><path d="M21.69596002224121,58.3371813046875C23.692555422241213,60.2836573046875,26.06714692224121,61.8137283046875,28.81973592224121,62.9273833046875C31.57232092224121,64.0410383046875,34.55752192224121,64.60271030468749,37.77533692224121,64.60271030468749C40.99315292224121,64.60271030468749,44.05588892224121,64.0313493046875,46.79878192224121,62.8886373046875C49.55137092224121,61.7459373046875,51.93565192224121,60.1965023046875,53.96132492224121,58.2209703046875C55.98699792224121,56.2454453046875,57.566831922241214,53.9600293046875,58.71051192224121,51.3356743046875C59.854188922241214,48.7210023046875,60.42603492224121,45.9029693046875,60.42603492224121,42.900940304687495L60.42603492224121,42.745998304687504C60.42603492224121,39.7439723046875,59.854188922241214,36.935620304687504,58.71051192224121,34.3112663046875C57.566831922241214,31.6869113046875,55.996690922241214,29.4111795046875,54.00008992224121,27.4743867046875C52.00349992224121,25.5279102046875,49.628903922241214,23.9978435046875,46.87632192224121,22.8841878046875C44.12373592224121,21.7705321946875,41.138536922241215,21.2088623046875,37.920720922241216,21.2088623046875C34.702905922241214,21.2088623046875,31.640168922241212,21.7802163346875,28.88758192224121,22.9229246046875C26.134994922241212,24.0656326046875,23.75070952224121,25.6150675046875,21.725039022241212,27.5905948046875C19.69936752224121,29.5661259046875,18.11953732224121,31.8612243046875,16.97585702224121,34.4758963046875C15.832175972241211,37.0905673046875,15.260335922241211,39.9085983046875,15.260335922241211,42.9106273046875L15.260335922241211,43.065571304687495C15.260335922241211,46.0772853046875,15.832175972241211,48.8856313046875,16.97585702224121,51.5099883046875C18.11953782224121,54.1246603046875,19.689675822241213,56.4100763046875,21.68627162224121,58.3565523046875L21.69596002224121,58.3371813046875Z" fill="#FF9D4D" fill-opacity="1" style="mix-blend-mode:passthrough" transform="matrix(0.9901291728019714,-0.14083673059940338,0.14062289893627167,0.9899662137031555,-2.8318195615530612,2.3620210111015183)"/><path d="M128.877099025,80.714233296875C130.874905625,82.660366296875,133.250938625,84.190162296875,136.005211625,85.303615296875C138.759467625,86.417068296875,141.746486625,86.97863729687501,144.966264625,86.97863729687501C148.186042625,86.97863729687501,151.250633625,86.407386296875,153.995200625,85.26488529687501C156.749454625,84.12237929687501,159.135200625,82.573223296875,161.162097625,80.59804129687501C163.188995625,78.62287129687499,164.769794625,76.337856296875,165.914161625,73.713974296875C167.058528625,71.099767296875,167.621028625,68.282234296875,167.621028625,65.280740296875L167.621028625,65.125827296875C167.621028625,62.124336296875,167.048839625,59.316484296875004,165.914161625,56.692597296875C164.769794625,54.068712296875,163.198684625,51.793384596875,161.200881625,49.856937396875C159.203075625,47.910807096875,156.827041625,46.381013396875,154.072772625,45.267556196875C151.318509625,44.154099106875,148.331493625,43.592529296875,145.121423625,43.592529296875C141.911352625,43.592529296875,138.837056625,44.163781586875,136.082798625,45.306286096875C133.328540625,46.448790596875,130.942799525,47.997950096875,128.915899725,49.973125496875C126.888999425,51.948304196875,125.308203425,54.242992296875,124.163826825,56.857199296875C123.019450185,59.471404296875,122.447265625,62.288936296875,122.447265625,65.290430296875L122.447265625,65.445343296875C122.447265625,68.456518296875,123.019450185,71.264366296875,124.163826825,73.888256296875C125.308203425,76.502460296875,126.879299125,78.787471296875,128.877106225,80.733600296875L128.877099025,80.714233296875Z" fill="#FF9D4D" fill-opacity="1" style="mix-blend-mode:passthrough" transform="matrix(0.8998494148254395,-0.43620070815086365,0.43569377064704895,0.9000949859619141,-6.729828156028816,57.76669622812187)"/><rect x="131.88916015625" y="152.255859375" width="34.327369689941406" height="77.7440414428711" rx="0" fill="#000000" fill-opacity="1"/></g></svg>