<svg xmlns="http://www.w3.org/2000/svg" xmlns:xlink="http://www.w3.org/1999/xlink" fill="none" version="1.1" width="60.50973392329183" height="60.509733923291826" viewBox="0 0 60.50973392329183 60.509733923291826"><defs><filter id="master_svg0_25_76578/25_77745" filterUnits="objectBoundingBox" color-interpolation-filters="sRGB" x="-0.10132354616564315" y="-0.07599265962423236" width="1.2026470923312862" height="1.2026470923312862"><feFlood flood-opacity="0" result="BackgroundImageFix"/><feColorMatrix in="SourceAlpha" type="matrix" values="0 0 0 0 0 0 0 0 0 0 0 0 0 0 0 0 0 0 127 0"/><feOffset dy="1" dx="0"/><feGaussianBlur stdDeviation="1"/><feColorMatrix type="matrix" values="0 0 0 0 0.364705890417099 0 0 0 0 0.364705890417099 0 0 0 0 0.364705890417099 0 0 0 0.25 0"/><feBlend mode="normal" in2="BackgroundImageFix" result="effect1_dropShadow"/><feBlend mode="normal" in="SourceGraphic" in2="effect1_dropShadow" result="shape"/></filter><clipPath id="master_svg1_25_76578/25_77745"><rect x="4.842665906250886" y="11.073458872717787" width="44.063544273376465" height="44.063544273376465" rx="22.031772136688232"/></clipPath></defs><g transform="matrix(0.9839867353439331,-0.17824174463748932,0.17824174463748932,0.9839867353439331,-2.2681994688096463,1.4859187654753914)" filter="url(#master_svg0_25_76578/25_77745)"><g clip-path="url(#master_svg1_25_76578/25_77745)"><rect x="7.1356894925240795" y="13.36648245899098" width="39.47749710083008" height="39.47749710083008" rx="19.73874855041504" fill="#FFAA64" fill-opacity="1"/><g transform="matrix(1,2.932508991193572e-8,-2.932508991193572e-8,1,6.762937410087488e-7,-4.291292867719676e-7)"><rect x="19.180394883454255" y="23.061949454230238" width="13.639534950256348" height="4.758620262145996" rx="0" fill="#FFFFFF" fill-opacity="1"/><rect x="14.633519883454255" y="27.820250235480238" width="9.360465049743652" height="8.988505363464355" rx="0" fill="#FFFFFF" fill-opacity="1"/><rect x="28.274144883454255" y="27.820738516730238" width="9.360465049743652" height="8.988505363464355" rx="0" fill="#FFFFFF" fill-opacity="1"/><rect x="23.992894883454255" y="36.80901976673024" width="4.279069900512695" height="4.229885101318359" rx="0" fill="#FFFFFF" fill-opacity="1"/><rect x="18.912816758454255" y="41.03851195423024" width="5.081395626068115" height="5.022988319396973" rx="0" fill="#FFFFFF" fill-opacity="1"/><rect x="28.272191758454255" y="41.03851195423024" width="5.081395626068115" height="5.022988319396973" rx="0" fill="#FFFFFF" fill-opacity="1"/><rect x="33.354223008454255" y="36.80901976673024" width="4.279069900512695" height="4.229885101318359" rx="0" fill="#FFFFFF" fill-opacity="1"/><rect x="14.635961289704255" y="36.80901976673024" width="4.279069900512695" height="4.229885101318359" rx="0" fill="#FFFFFF" fill-opacity="1"/></g><rect x="5.989177699387483" y="12.219970665854383" width="41.77052068710327" height="41.77052068710327" rx="20.885260343551636" fill-opacity="0" stroke-opacity="1" stroke="#FFFFFF" fill="none" stroke-width="2.2930235862731934"/></g></g></svg>