<svg xmlns="http://www.w3.org/2000/svg" xmlns:xlink="http://www.w3.org/1999/xlink" fill="none" version="1.1" width="235" height="21" viewBox="0 0 235 21"><path d="M118.25161,21Q147.87173,21,234.61241,0.98720086L234.3876,0.012799139999999987Q147.75787,20,118.25161,20Q107.8789,20,99.79882,18.307812Q94.355675,17.167868,90.771614,15.462395Q94.370857,14.638595,97.366638,13.626758Q104.67263,11.159134,106.66776,9.2264624Q107.75114,8.1769934,107.35756,7.2226214Q107.0252,6.4167213,105.63501,5.9448776Q103.26192,5.1394272,98.598015,5.3064232Q93.886955,5.4751081,89.570267,6.5452957Q84.957191,7.6889553,84.637733,10.2793608Q84.339371,12.698764,87.951614,15.041681Q83.245125,15.976278,77.600136,16.623135Q65.730888,17.983227,52.432022,17.755163Q21.991392,17.233133,0.67208402,9.4182863L0.32791598,10.3571939Q21.805593,18.230095,52.414871,18.755016Q65.779449,18.984207,77.713974,17.616634Q84.054916,16.89003,89.231262,15.800533Q93.169487,17.941143,99.593842,19.286579Q107.77531,21,118.25161,21ZM89.389648,14.744706Q93.622284,13.835932,97.046654,12.679339Q104.13888,10.2839146,105.97198,8.5082016Q106.56795,7.9308949,106.43307,7.6038761Q106.27383,7.2177315,105.3136,6.8918204Q103.11429,6.1453543,98.633804,6.3057833Q94.026665,6.4707465,89.810905,7.5159125Q85.865479,8.494050999999999,85.630219,10.4017563Q85.396347,12.298171,88.825462,14.411052Q89.09993,14.580167,89.389648,14.744706Z" fill-rule="evenodd" fill="#FFAA64" fill-opacity="1"/></svg>